<svg width="134" height="141" viewBox="0 0 134 141" fill="none" xmlns="http://www.w3.org/2000/svg">
<circle opacity="0.8" cx="40.0773" cy="100.882" r="40.0773" fill="#FF309C"/>
<circle opacity="0.8" cx="40.0773" cy="40.0773" r="40.0773" fill="#FFD71D"/>
<circle opacity="0.8" cx="93.881" cy="40.0773" r="40.0773" fill="#FF921A"/>
<circle opacity="0.8" cx="93.9235" cy="100.882" r="40.0773" fill="#23EC95"/>
<path d="M22.2104 57.499C17.3771 52.7987 14.9605 46.9234 14.9605 39.873C14.9605 32.8226 17.3771 26.9695 22.2104 22.3135C27.0881 17.6133 33.3181 15.2632 40.9006 15.2632C49.2813 15.2632 55.8661 18.3228 60.655 24.442C62.7834 27.2355 64.291 30.2729 65.1779 33.5543H52.5404C51.8753 32.1797 51.0549 31.0268 50.0794 30.0956C47.7293 27.7455 44.6697 26.5704 40.9006 26.5704C37.0428 26.5704 33.9167 27.7898 31.5223 30.2286C29.1278 32.6674 27.9305 35.8822 27.9305 39.873C27.9305 43.8638 29.1278 47.0786 31.5223 49.5174C33.9167 51.9562 37.0428 53.1756 40.9006 53.1756C45.0688 53.1756 48.3057 51.8454 50.6115 49.1848C51.6757 47.9876 52.4295 46.6573 52.873 45.1941H65.5104C64.5349 48.7858 62.9608 52.0006 60.788 54.8385C56.0434 61.2681 49.4143 64.4828 40.9006 64.4828C33.3181 64.4828 27.0881 62.1549 22.2104 57.499Z" fill="white"/>
<path d="M19.2686 88.3936V77.0864H60.8393V88.3936H46.2064V123.646H33.9015V88.3936H19.2686Z" fill="white"/>
<path d="M69.5772 16.5934H82.5473L92.5242 34.552H93.5219L103.499 16.5934H116.469L99.1755 46.5243V63.1526H86.8706V46.5243L69.5772 16.5934Z" fill="white"/>
<path d="M69.5772 77.0864H82.5473L92.5242 95.0449H93.5219L103.499 77.0864H116.469L99.1755 107.017V123.646H86.8706V107.017L69.5772 77.0864Z" fill="white"/>
</svg>
